<mxfile host="app.diagrams.net" agent="Mozilla/5.0 (Windows NT 10.0; Win64; x64; rv:131.0) Gecko/20100101 Firefox/131.0" version="24.7.17">
  <diagram id="C5RBs43oDa-KdzZeNtuy" name="Page-1">
    <mxGraphModel dx="956" dy="1685" grid="1" gridSize="10" guides="1" tooltips="1" connect="1" arrows="1" fold="1" page="1" pageScale="1" pageWidth="827" pageHeight="1169" math="0" shadow="0">
      <root>
        <mxCell id="WIyWlLk6GJQsqaUBKTNV-0" />
        <mxCell id="WIyWlLk6GJQsqaUBKTNV-1" parent="WIyWlLk6GJQsqaUBKTNV-0" />
        <mxCell id="PEbqonXudRbsSx0Zb2l2-4" value="" style="edgeStyle=orthogonalEdgeStyle;rounded=0;orthogonalLoop=1;jettySize=auto;html=1;" edge="1" parent="WIyWlLk6GJQsqaUBKTNV-1" source="PEbqonXudRbsSx0Zb2l2-0" target="PEbqonXudRbsSx0Zb2l2-3">
          <mxGeometry relative="1" as="geometry" />
        </mxCell>
        <mxCell id="PEbqonXudRbsSx0Zb2l2-0" value="Inicio" style="ellipse;whiteSpace=wrap;html=1;aspect=fixed;fillColor=#d5e8d4;strokeColor=#82b366;" vertex="1" parent="WIyWlLk6GJQsqaUBKTNV-1">
          <mxGeometry x="414" y="40" width="40" height="40" as="geometry" />
        </mxCell>
        <mxCell id="PEbqonXudRbsSx0Zb2l2-8" value="" style="edgeStyle=orthogonalEdgeStyle;rounded=0;orthogonalLoop=1;jettySize=auto;html=1;" edge="1" parent="WIyWlLk6GJQsqaUBKTNV-1" source="PEbqonXudRbsSx0Zb2l2-3" target="PEbqonXudRbsSx0Zb2l2-7">
          <mxGeometry relative="1" as="geometry" />
        </mxCell>
        <mxCell id="PEbqonXudRbsSx0Zb2l2-19" value="1 minuto" style="edgeLabel;html=1;align=center;verticalAlign=middle;resizable=0;points=[];" vertex="1" connectable="0" parent="PEbqonXudRbsSx0Zb2l2-8">
          <mxGeometry x="-0.1667" y="1" relative="1" as="geometry">
            <mxPoint as="offset" />
          </mxGeometry>
        </mxCell>
        <mxCell id="PEbqonXudRbsSx0Zb2l2-3" value="Valida Tarjeta" style="shape=process;whiteSpace=wrap;html=1;backgroundOutline=1;fillColor=#dae8fc;strokeColor=#6c8ebf;" vertex="1" parent="WIyWlLk6GJQsqaUBKTNV-1">
          <mxGeometry x="396" y="120" width="76" height="30" as="geometry" />
        </mxCell>
        <mxCell id="PEbqonXudRbsSx0Zb2l2-10" value="" style="edgeStyle=orthogonalEdgeStyle;rounded=0;orthogonalLoop=1;jettySize=auto;html=1;" edge="1" parent="WIyWlLk6GJQsqaUBKTNV-1" source="PEbqonXudRbsSx0Zb2l2-7" target="PEbqonXudRbsSx0Zb2l2-9">
          <mxGeometry relative="1" as="geometry" />
        </mxCell>
        <mxCell id="PEbqonXudRbsSx0Zb2l2-18" value="1 minuto" style="edgeLabel;html=1;align=center;verticalAlign=middle;resizable=0;points=[];" vertex="1" connectable="0" parent="PEbqonXudRbsSx0Zb2l2-10">
          <mxGeometry x="-0.3926" y="3" relative="1" as="geometry">
            <mxPoint as="offset" />
          </mxGeometry>
        </mxCell>
        <mxCell id="PEbqonXudRbsSx0Zb2l2-7" value="Valida Pin" style="shape=process;whiteSpace=wrap;html=1;backgroundOutline=1;fillColor=#dae8fc;strokeColor=#6c8ebf;" vertex="1" parent="WIyWlLk6GJQsqaUBKTNV-1">
          <mxGeometry x="396" y="190" width="76" height="35" as="geometry" />
        </mxCell>
        <mxCell id="PEbqonXudRbsSx0Zb2l2-17" value="" style="edgeStyle=orthogonalEdgeStyle;rounded=0;orthogonalLoop=1;jettySize=auto;html=1;" edge="1" parent="WIyWlLk6GJQsqaUBKTNV-1" source="PEbqonXudRbsSx0Zb2l2-9" target="PEbqonXudRbsSx0Zb2l2-16">
          <mxGeometry relative="1" as="geometry" />
        </mxCell>
        <mxCell id="PEbqonXudRbsSx0Zb2l2-20" value="1 minuto" style="edgeLabel;html=1;align=center;verticalAlign=middle;resizable=0;points=[];" vertex="1" connectable="0" parent="PEbqonXudRbsSx0Zb2l2-17">
          <mxGeometry x="0.0575" y="1" relative="1" as="geometry">
            <mxPoint as="offset" />
          </mxGeometry>
        </mxCell>
        <mxCell id="PEbqonXudRbsSx0Zb2l2-9" value="Valida Usuario" style="shape=process;whiteSpace=wrap;html=1;backgroundOutline=1;fillColor=#dae8fc;strokeColor=#6c8ebf;" vertex="1" parent="WIyWlLk6GJQsqaUBKTNV-1">
          <mxGeometry x="396" y="260" width="76" height="35" as="geometry" />
        </mxCell>
        <mxCell id="PEbqonXudRbsSx0Zb2l2-22" value="" style="edgeStyle=orthogonalEdgeStyle;rounded=0;orthogonalLoop=1;jettySize=auto;html=1;" edge="1" parent="WIyWlLk6GJQsqaUBKTNV-1" source="PEbqonXudRbsSx0Zb2l2-16" target="PEbqonXudRbsSx0Zb2l2-21">
          <mxGeometry relative="1" as="geometry" />
        </mxCell>
        <mxCell id="PEbqonXudRbsSx0Zb2l2-16" value="Muestra Información" style="shape=document;whiteSpace=wrap;html=1;boundedLbl=1;fillColor=#dae8fc;strokeColor=#6c8ebf;" vertex="1" parent="WIyWlLk6GJQsqaUBKTNV-1">
          <mxGeometry x="381" y="338.5" width="106" height="57.5" as="geometry" />
        </mxCell>
        <mxCell id="PEbqonXudRbsSx0Zb2l2-21" value="Fin" style="ellipse;whiteSpace=wrap;html=1;fillColor=#d5e8d4;strokeColor=#82b366;" vertex="1" parent="WIyWlLk6GJQsqaUBKTNV-1">
          <mxGeometry x="411" y="440" width="46" height="45.25" as="geometry" />
        </mxCell>
        <mxCell id="PEbqonXudRbsSx0Zb2l2-23" value="" style="edgeStyle=orthogonalEdgeStyle;rounded=0;orthogonalLoop=1;jettySize=auto;html=1;" edge="1" parent="WIyWlLk6GJQsqaUBKTNV-1" source="PEbqonXudRbsSx0Zb2l2-24" target="PEbqonXudRbsSx0Zb2l2-27">
          <mxGeometry relative="1" as="geometry" />
        </mxCell>
        <mxCell id="PEbqonXudRbsSx0Zb2l2-24" value="Inicio" style="ellipse;whiteSpace=wrap;html=1;aspect=fixed;fillColor=#d5e8d4;strokeColor=#82b366;" vertex="1" parent="WIyWlLk6GJQsqaUBKTNV-1">
          <mxGeometry x="163" y="560" width="40" height="40" as="geometry" />
        </mxCell>
        <mxCell id="PEbqonXudRbsSx0Zb2l2-25" value="" style="edgeStyle=orthogonalEdgeStyle;rounded=0;orthogonalLoop=1;jettySize=auto;html=1;" edge="1" parent="WIyWlLk6GJQsqaUBKTNV-1" source="PEbqonXudRbsSx0Zb2l2-27" target="PEbqonXudRbsSx0Zb2l2-30">
          <mxGeometry relative="1" as="geometry" />
        </mxCell>
        <mxCell id="PEbqonXudRbsSx0Zb2l2-26" value="1 minuto" style="edgeLabel;html=1;align=center;verticalAlign=middle;resizable=0;points=[];" vertex="1" connectable="0" parent="PEbqonXudRbsSx0Zb2l2-25">
          <mxGeometry x="-0.1667" y="1" relative="1" as="geometry">
            <mxPoint as="offset" />
          </mxGeometry>
        </mxCell>
        <mxCell id="PEbqonXudRbsSx0Zb2l2-27" value="Valida Tarjeta" style="shape=process;whiteSpace=wrap;html=1;backgroundOutline=1;fillColor=#dae8fc;strokeColor=#6c8ebf;" vertex="1" parent="WIyWlLk6GJQsqaUBKTNV-1">
          <mxGeometry x="145" y="640" width="76" height="30" as="geometry" />
        </mxCell>
        <mxCell id="PEbqonXudRbsSx0Zb2l2-28" value="" style="edgeStyle=orthogonalEdgeStyle;rounded=0;orthogonalLoop=1;jettySize=auto;html=1;" edge="1" parent="WIyWlLk6GJQsqaUBKTNV-1" source="PEbqonXudRbsSx0Zb2l2-30" target="PEbqonXudRbsSx0Zb2l2-33">
          <mxGeometry relative="1" as="geometry" />
        </mxCell>
        <mxCell id="PEbqonXudRbsSx0Zb2l2-29" value="1 minuto" style="edgeLabel;html=1;align=center;verticalAlign=middle;resizable=0;points=[];" vertex="1" connectable="0" parent="PEbqonXudRbsSx0Zb2l2-28">
          <mxGeometry x="-0.3926" y="3" relative="1" as="geometry">
            <mxPoint as="offset" />
          </mxGeometry>
        </mxCell>
        <mxCell id="PEbqonXudRbsSx0Zb2l2-30" value="Valida Pin" style="shape=process;whiteSpace=wrap;html=1;backgroundOutline=1;fillColor=#dae8fc;strokeColor=#6c8ebf;" vertex="1" parent="WIyWlLk6GJQsqaUBKTNV-1">
          <mxGeometry x="145" y="710" width="76" height="35" as="geometry" />
        </mxCell>
        <mxCell id="PEbqonXudRbsSx0Zb2l2-31" value="" style="edgeStyle=orthogonalEdgeStyle;rounded=0;orthogonalLoop=1;jettySize=auto;html=1;" edge="1" parent="WIyWlLk6GJQsqaUBKTNV-1" source="PEbqonXudRbsSx0Zb2l2-33" target="PEbqonXudRbsSx0Zb2l2-35">
          <mxGeometry relative="1" as="geometry" />
        </mxCell>
        <mxCell id="PEbqonXudRbsSx0Zb2l2-32" value="1 minuto" style="edgeLabel;html=1;align=center;verticalAlign=middle;resizable=0;points=[];" vertex="1" connectable="0" parent="PEbqonXudRbsSx0Zb2l2-31">
          <mxGeometry x="0.0575" y="1" relative="1" as="geometry">
            <mxPoint as="offset" />
          </mxGeometry>
        </mxCell>
        <mxCell id="PEbqonXudRbsSx0Zb2l2-33" value="Valida Usuario" style="shape=process;whiteSpace=wrap;html=1;backgroundOutline=1;fillColor=#dae8fc;strokeColor=#6c8ebf;" vertex="1" parent="WIyWlLk6GJQsqaUBKTNV-1">
          <mxGeometry x="145" y="780" width="76" height="35" as="geometry" />
        </mxCell>
        <mxCell id="PEbqonXudRbsSx0Zb2l2-34" value="" style="edgeStyle=orthogonalEdgeStyle;rounded=0;orthogonalLoop=1;jettySize=auto;html=1;" edge="1" parent="WIyWlLk6GJQsqaUBKTNV-1" source="PEbqonXudRbsSx0Zb2l2-35" target="PEbqonXudRbsSx0Zb2l2-36">
          <mxGeometry relative="1" as="geometry" />
        </mxCell>
        <mxCell id="PEbqonXudRbsSx0Zb2l2-35" value="Muestra Información" style="shape=document;whiteSpace=wrap;html=1;boundedLbl=1;fillColor=#dae8fc;strokeColor=#6c8ebf;" vertex="1" parent="WIyWlLk6GJQsqaUBKTNV-1">
          <mxGeometry x="130" y="858.5" width="106" height="57.5" as="geometry" />
        </mxCell>
        <mxCell id="PEbqonXudRbsSx0Zb2l2-36" value="Fin" style="ellipse;whiteSpace=wrap;html=1;fillColor=#d5e8d4;strokeColor=#82b366;" vertex="1" parent="WIyWlLk6GJQsqaUBKTNV-1">
          <mxGeometry x="160" y="960" width="46" height="45.25" as="geometry" />
        </mxCell>
        <mxCell id="PEbqonXudRbsSx0Zb2l2-37" value="" style="edgeStyle=orthogonalEdgeStyle;rounded=0;orthogonalLoop=1;jettySize=auto;html=1;" edge="1" parent="WIyWlLk6GJQsqaUBKTNV-1" source="PEbqonXudRbsSx0Zb2l2-38" target="PEbqonXudRbsSx0Zb2l2-41">
          <mxGeometry relative="1" as="geometry" />
        </mxCell>
        <mxCell id="PEbqonXudRbsSx0Zb2l2-38" value="Inicio" style="ellipse;whiteSpace=wrap;html=1;aspect=fixed;fillColor=#d5e8d4;strokeColor=#82b366;" vertex="1" parent="WIyWlLk6GJQsqaUBKTNV-1">
          <mxGeometry x="414" y="-480" width="40" height="40" as="geometry" />
        </mxCell>
        <mxCell id="PEbqonXudRbsSx0Zb2l2-39" value="" style="edgeStyle=orthogonalEdgeStyle;rounded=0;orthogonalLoop=1;jettySize=auto;html=1;entryX=0.5;entryY=0;entryDx=0;entryDy=0;" edge="1" parent="WIyWlLk6GJQsqaUBKTNV-1" source="PEbqonXudRbsSx0Zb2l2-41" target="PEbqonXudRbsSx0Zb2l2-47">
          <mxGeometry relative="1" as="geometry">
            <mxPoint x="434" y="-330" as="targetPoint" />
          </mxGeometry>
        </mxCell>
        <mxCell id="PEbqonXudRbsSx0Zb2l2-41" value="Proceso" style="shape=process;whiteSpace=wrap;html=1;backgroundOutline=1;fillColor=#dae8fc;strokeColor=#6c8ebf;" vertex="1" parent="WIyWlLk6GJQsqaUBKTNV-1">
          <mxGeometry x="396" y="-400" width="76" height="30" as="geometry" />
        </mxCell>
        <mxCell id="PEbqonXudRbsSx0Zb2l2-45" value="" style="edgeStyle=orthogonalEdgeStyle;rounded=0;orthogonalLoop=1;jettySize=auto;html=1;entryX=0.5;entryY=0;entryDx=0;entryDy=0;" edge="1" parent="WIyWlLk6GJQsqaUBKTNV-1" source="PEbqonXudRbsSx0Zb2l2-47" target="PEbqonXudRbsSx0Zb2l2-50">
          <mxGeometry relative="1" as="geometry">
            <mxPoint x="434" y="-200" as="targetPoint" />
          </mxGeometry>
        </mxCell>
        <mxCell id="PEbqonXudRbsSx0Zb2l2-47" value="Proceso" style="shape=process;whiteSpace=wrap;html=1;backgroundOutline=1;fillColor=#dae8fc;strokeColor=#6c8ebf;" vertex="1" parent="WIyWlLk6GJQsqaUBKTNV-1">
          <mxGeometry x="396" y="-310" width="76" height="35" as="geometry" />
        </mxCell>
        <mxCell id="PEbqonXudRbsSx0Zb2l2-50" value="Fin" style="ellipse;whiteSpace=wrap;html=1;fillColor=#d5e8d4;strokeColor=#82b366;" vertex="1" parent="WIyWlLk6GJQsqaUBKTNV-1">
          <mxGeometry x="411" y="-220" width="46" height="45.25" as="geometry" />
        </mxCell>
      </root>
    </mxGraphModel>
  </diagram>
</mxfile>
